<svg width="30" height="30" viewBox="0 0 30 30" fill="none" xmlns="http://www.w3.org/2000/svg">
<mask id="path-1-inside-1_6_8" fill="white">
<path d="M11.8364 21.0235C11.7231 21.0235 11.609 20.9845 11.5158 20.9052L8.31084 18.1762C8.20029 18.082 8.13672 17.9443 8.13672 17.799C8.13672 17.6539 8.20056 17.5162 8.31084 17.422L11.5158 14.693C11.7239 14.5155 12.0365 14.5407 12.214 14.7488C12.3911 14.9572 12.3663 15.2698 12.1579 15.4469L9.39594 17.799L12.1579 20.151C12.3663 20.3284 12.3911 20.641 12.214 20.8491C12.1159 20.9644 11.9766 21.0235 11.8364 21.0235Z"/>
</mask>
<path d="M11.8364 21.0235C11.7231 21.0235 11.609 20.9845 11.5158 20.9052L8.31084 18.1762C8.20029 18.082 8.13672 17.9443 8.13672 17.799C8.13672 17.6539 8.20056 17.5162 8.31084 17.422L11.5158 14.693C11.7239 14.5155 12.0365 14.5407 12.214 14.7488C12.3911 14.9572 12.3663 15.2698 12.1579 15.4469L9.39594 17.799L12.1579 20.151C12.3663 20.3284 12.3911 20.641 12.214 20.8491C12.1159 20.9644 11.9766 21.0235 11.8364 21.0235Z" fill="#4985FF"/>
<path d="M11.5158 20.9052L12.1642 20.1439L12.1641 20.1438L11.5158 20.9052ZM8.31084 18.1762L7.6621 18.9372L7.66254 18.9376L8.31084 18.1762ZM8.31084 17.422L7.66254 16.6606L7.66116 16.6618L8.31084 17.422ZM11.5158 14.693L12.1641 15.4543L12.1646 15.4539L11.5158 14.693ZM12.214 14.7488L12.9759 14.1011L12.9749 14.1L12.214 14.7488ZM12.1579 15.4469L11.5102 14.685L11.5095 14.6856L12.1579 15.4469ZM9.39594 17.799L8.74759 17.0376L7.85356 17.799L8.74759 18.5603L9.39594 17.799ZM12.1579 20.151L11.5095 20.9123L11.5096 20.9124L12.1579 20.151ZM12.214 20.8491L12.9754 21.4974L12.9754 21.4973L12.214 20.8491ZM11.8364 20.0235C11.9527 20.0235 12.0704 20.064 12.1642 20.1439L10.8675 21.6666C11.1476 21.9051 11.4936 22.0235 11.8364 22.0235V20.0235ZM12.1641 20.1438L8.95915 17.4148L7.66254 18.9376L10.8675 21.6666L12.1641 20.1438ZM8.95959 17.4152C9.07185 17.5109 9.13672 17.6514 9.13672 17.799H7.13672C7.13672 18.2373 7.32873 18.653 7.6621 18.9372L8.95959 17.4152ZM9.13672 17.799C9.13672 17.9482 9.07109 18.0877 8.96053 18.1822L7.66116 16.6618C7.33004 16.9447 7.13672 17.3595 7.13672 17.799H9.13672ZM8.95915 18.1833L12.1641 15.4543L10.8675 13.9316L7.66254 16.6606L8.95915 18.1833ZM12.1646 15.4539C11.9517 15.6355 11.6332 15.609 11.453 15.3976L12.9749 14.1C12.4399 13.4724 11.4962 13.3956 10.867 13.932L12.1646 15.4539ZM11.4521 15.3965C11.2726 15.1854 11.2965 14.8667 11.5102 14.685L12.8056 16.2088C13.436 15.6729 13.5097 14.729 12.9759 14.1011L11.4521 15.3965ZM11.5095 14.6856L8.74759 17.0376L10.0443 18.5603L12.8062 16.2083L11.5095 14.6856ZM8.74759 18.5603L11.5095 20.9123L12.8062 19.3896L10.0443 17.0376L8.74759 18.5603ZM11.5096 20.9124C11.2973 20.7316 11.2719 20.4131 11.4525 20.2009L12.9754 21.4973C13.5104 20.8689 13.4353 19.9252 12.8062 19.3896L11.5096 20.9124ZM11.4525 20.2009C11.5523 20.0837 11.6959 20.0235 11.8364 20.0235V22.0235C12.2573 22.0235 12.6794 21.845 12.9754 21.4974L11.4525 20.2009Z" fill="#4985FF" mask="url(#path-1-inside-1_6_8)"/>
<mask id="path-3-inside-2_6_8" fill="white">
<path d="M18.1635 21.0235C18.0234 21.0235 17.8841 20.9644 17.7862 20.8491C17.6088 20.641 17.6339 20.3284 17.8421 20.151L20.604 17.799L17.8421 15.4469C17.6339 15.2698 17.6088 14.9572 17.7862 14.7488C17.9634 14.5407 18.2763 14.5155 18.4841 14.693L21.6891 17.422C21.7996 17.5162 21.8632 17.6539 21.8632 17.799C21.8632 17.9443 21.7996 18.082 21.6891 18.1762L18.4841 20.9052C18.391 20.9845 18.2768 21.0235 18.1635 21.0235Z"/>
</mask>
<path d="M18.1635 21.0235C18.0234 21.0235 17.8841 20.9644 17.7862 20.8491C17.6088 20.641 17.6339 20.3284 17.8421 20.151L20.604 17.799L17.8421 15.4469C17.6339 15.2698 17.6088 14.9572 17.7862 14.7488C17.9634 14.5407 18.2763 14.5155 18.4841 14.693L21.6891 17.422C21.7996 17.5162 21.8632 17.6539 21.8632 17.799C21.8632 17.9443 21.7996 18.082 21.6891 18.1762L18.4841 20.9052C18.391 20.9845 18.2768 21.0235 18.1635 21.0235Z" fill="#4985FF"/>
<path d="M17.7862 20.8491L18.5486 20.2019L18.5472 20.2003L17.7862 20.8491ZM17.8421 20.151L17.1937 19.3896L17.1933 19.39L17.8421 20.151ZM20.604 17.799L21.2523 18.5603L22.1464 17.799L21.2523 17.0376L20.604 17.799ZM17.8421 15.4469L18.4904 14.6856L18.4903 14.6855L17.8421 15.4469ZM17.7862 14.7488L18.5476 15.3971L18.5477 15.397L17.7862 14.7488ZM18.4841 14.693L17.8348 15.4535L17.8358 15.4543L18.4841 14.693ZM21.6891 17.422L22.3378 16.661L22.3374 16.6606L21.6891 17.422ZM21.6891 18.1762L22.3374 18.9376L22.3378 18.9372L21.6891 18.1762ZM18.4841 20.9052L17.8358 20.1438L17.8357 20.1439L18.4841 20.9052ZM18.1635 20.0235C18.3038 20.0235 18.4481 20.0836 18.5486 20.2019L17.0239 21.4963C17.3201 21.8452 17.7429 22.0235 18.1635 22.0235V20.0235ZM18.5472 20.2003C18.7287 20.4133 18.7022 20.7317 18.4908 20.9119L17.1933 19.39C16.5657 19.9251 16.4888 20.8687 17.0253 21.4979L18.5472 20.2003ZM18.4904 20.9123L21.2523 18.5603L19.9556 17.0376L17.1937 19.3896L18.4904 20.9123ZM21.2523 17.0376L18.4904 14.6856L17.1937 16.2083L19.9556 18.5603L21.2523 17.0376ZM18.4903 14.6855C18.703 14.8665 18.7281 15.1852 18.5476 15.3971L17.0248 14.1005C16.4895 14.7292 16.5649 15.673 17.1939 16.2084L18.4903 14.6855ZM18.5477 15.397C18.3671 15.6092 18.0481 15.6356 17.8348 15.4535L19.1334 13.9324C18.5044 13.3954 17.5597 13.4722 17.0248 14.1006L18.5477 15.397ZM17.8358 15.4543L21.0408 18.1833L22.3374 16.6606L19.1324 13.9316L17.8358 15.4543ZM21.0403 18.183C20.9283 18.0875 20.8632 17.9471 20.8632 17.799H22.8632C22.8632 17.3606 22.671 16.945 22.3378 16.661L21.0403 18.183ZM20.8632 17.799C20.8632 17.6514 20.9281 17.5109 21.0403 17.4152L22.3378 18.9372C22.6712 18.653 22.8632 18.2373 22.8632 17.799H20.8632ZM21.0408 17.4148L17.8358 20.1438L19.1324 21.6666L22.3374 18.9376L21.0408 17.4148ZM17.8357 20.1439C17.9296 20.064 18.0473 20.0235 18.1635 20.0235V22.0235C18.5064 22.0235 18.8524 21.9051 19.1325 21.6666L17.8357 20.1439Z" fill="#4985FF" mask="url(#path-3-inside-2_6_8)"/>
<mask id="path-5-inside-3_6_8" fill="white">
<path d="M13.8652 23.0706C13.8312 23.0706 13.7969 23.067 13.7624 23.0598C13.4949 23.0034 13.3235 22.7406 13.3799 22.473L15.3773 12.9894C15.4337 12.7219 15.6963 12.5505 15.9641 12.6069C16.2317 12.6633 16.403 12.9259 16.3466 13.1937L14.3492 22.6773C14.3 22.9105 14.0943 23.0706 13.8652 23.0706Z"/>
</mask>
<path d="M13.8652 23.0706C13.8312 23.0706 13.7969 23.067 13.7624 23.0598C13.4949 23.0034 13.3235 22.7406 13.3799 22.473L15.3773 12.9894C15.4337 12.7219 15.6963 12.5505 15.9641 12.6069C16.2317 12.6633 16.403 12.9259 16.3466 13.1937L14.3492 22.6773C14.3 22.9105 14.0943 23.0706 13.8652 23.0706Z" fill="#4985FF"/>
<path d="M13.7624 23.0598L13.5562 24.0383L13.5588 24.0388L13.7624 23.0598ZM13.3799 22.473L14.3584 22.6792L14.3584 22.6791L13.3799 22.473ZM15.3773 12.9894L14.3988 12.7832L14.3988 12.7833L15.3773 12.9894ZM15.9641 12.6069L16.1703 11.6284L16.1701 11.6284L15.9641 12.6069ZM16.3466 13.1937L17.3252 13.3998L17.3252 13.3997L16.3466 13.1937ZM14.3492 22.6773L15.3276 22.8836L15.3277 22.8834L14.3492 22.6773ZM13.8652 22.0706C13.9022 22.0706 13.9361 22.0745 13.966 22.0807L13.5588 24.0388C13.6577 24.0594 13.7603 24.0706 13.8652 24.0706V22.0706ZM13.9686 22.0813C14.2414 22.1388 14.4159 22.4063 14.3584 22.6792L12.4014 22.2668C12.2311 23.0748 12.7483 23.868 13.5562 24.0383L13.9686 22.0813ZM14.3584 22.6791L16.3559 13.1955L14.3988 12.7833L12.4013 22.2669L14.3584 22.6791ZM16.3558 13.1957C16.2984 13.4683 16.0308 13.6429 15.7581 13.5855L16.1701 11.6284C15.3618 11.4582 14.5691 11.9755 14.3988 12.7832L16.3558 13.1957ZM15.7579 13.5854C15.4853 13.528 15.3107 13.2604 15.3681 12.9877L17.3252 13.3997C17.4954 12.5914 16.9781 11.7986 16.1703 11.6284L15.7579 13.5854ZM15.3681 12.9876L13.3706 22.4712L15.3277 22.8834L17.3252 13.3998L15.3681 12.9876ZM13.3707 22.4709C13.4209 22.2328 13.6307 22.0706 13.8652 22.0706V24.0706C14.558 24.0706 15.179 23.5883 15.3276 22.8836L13.3707 22.4709Z" fill="#4985FF" mask="url(#path-5-inside-3_6_8)"/>
<mask id="path-7-inside-4_6_8" fill="white">
<path d="M26.6745 28.2374H3.32547C1.49193 28.2374 0 26.7457 0 24.9119V5.09451C0 3.26097 1.49193 1.76904 3.32547 1.76904H26.6745C28.5081 1.76904 30 3.26097 30 5.09451V24.9119C30 26.7457 28.5081 28.2374 26.6745 28.2374ZM3.32547 2.75961C2.03807 2.75961 0.990566 3.80711 0.990566 5.09451V24.9119C0.990566 26.1993 2.03807 27.2468 3.32547 27.2468H26.6745C27.9619 27.2468 29.0094 26.1993 29.0094 24.9119V5.09451C29.0094 3.80711 27.9619 2.75961 26.6745 2.75961H3.32547Z"/>
</mask>
<path d="M26.6745 28.2374H3.32547C1.49193 28.2374 0 26.7457 0 24.9119V5.09451C0 3.26097 1.49193 1.76904 3.32547 1.76904H26.6745C28.5081 1.76904 30 3.26097 30 5.09451V24.9119C30 26.7457 28.5081 28.2374 26.6745 28.2374ZM3.32547 2.75961C2.03807 2.75961 0.990566 3.80711 0.990566 5.09451V24.9119C0.990566 26.1993 2.03807 27.2468 3.32547 27.2468H26.6745C27.9619 27.2468 29.0094 26.1993 29.0094 24.9119V5.09451C29.0094 3.80711 27.9619 2.75961 26.6745 2.75961H3.32547Z" fill="#4985FF"/>
<path d="M26.6745 27.2374H3.32547V29.2374H26.6745V27.2374ZM3.32547 27.2374C2.04416 27.2374 1 26.1934 1 24.9119H-1C-1 27.2981 0.939699 29.2374 3.32547 29.2374V27.2374ZM1 24.9119V5.09451H-1V24.9119H1ZM1 5.09451C1 3.81326 2.04421 2.76904 3.32547 2.76904V0.769043C0.939645 0.769043 -1 2.70869 -1 5.09451H1ZM3.32547 2.76904H26.6745V0.769043H3.32547V2.76904ZM26.6745 2.76904C27.9558 2.76904 29 3.81326 29 5.09451H31C31 2.70869 29.0604 0.769043 26.6745 0.769043V2.76904ZM29 5.09451V24.9119H31V5.09451H29ZM29 24.9119C29 26.1934 27.9558 27.2374 26.6745 27.2374V29.2374C29.0603 29.2374 31 27.2981 31 24.9119H29ZM3.32547 1.75961C1.48578 1.75961 -0.009434 3.25483 -0.009434 5.09451H1.99057C1.99057 4.3594 2.59035 3.75961 3.32547 3.75961V1.75961ZM-0.009434 5.09451V24.9119H1.99057V5.09451H-0.009434ZM-0.009434 24.9119C-0.009434 26.7516 1.48578 28.2468 3.32547 28.2468V26.2468C2.59035 26.2468 1.99057 25.647 1.99057 24.9119H-0.009434ZM3.32547 28.2468H26.6745V26.2468H3.32547V28.2468ZM26.6745 28.2468C28.5142 28.2468 30.0094 26.7516 30.0094 24.9119H28.0094C28.0094 25.647 27.4096 26.2468 26.6745 26.2468V28.2468ZM30.0094 24.9119V5.09451H28.0094V24.9119H30.0094ZM30.0094 5.09451C30.0094 3.25483 28.5142 1.75961 26.6745 1.75961V3.75961C27.4096 3.75961 28.0094 4.3594 28.0094 5.09451H30.0094ZM26.6745 1.75961H3.32547V3.75961H26.6745V1.75961Z" fill="#4985FF" mask="url(#path-7-inside-4_6_8)"/>
<mask id="path-9-inside-5_6_8" fill="white">
<path d="M29.5047 9.69955H0.495283C0.221661 9.69955 0 9.47789 0 9.20427C0 8.93092 0.221661 8.70898 0.495283 8.70898H29.5047C29.7783 8.70898 30 8.93092 30 9.20427C30 9.47789 29.7783 9.69955 29.5047 9.69955Z"/>
</mask>
<path d="M29.5047 9.69955H0.495283C0.221661 9.69955 0 9.47789 0 9.20427C0 8.93092 0.221661 8.70898 0.495283 8.70898H29.5047C29.7783 8.70898 30 8.93092 30 9.20427C30 9.47789 29.7783 9.69955 29.5047 9.69955Z" fill="#4985FF"/>
<path d="M29.5047 8.69955H0.495283V10.6996H29.5047V8.69955ZM0.495283 8.69955C0.773946 8.69955 1 8.9256 1 9.20427H-1C-1 10.0302 -0.330624 10.6996 0.495283 10.6996V8.69955ZM1 9.20427C1 9.48284 0.77431 9.70898 0.495283 9.70898V7.70898C-0.330987 7.70898 -1 8.379 -1 9.20427H1ZM0.495283 9.70898H29.5047V7.70898H0.495283V9.70898ZM29.5047 9.70898C29.2257 9.70898 29 9.48284 29 9.20427H31C31 8.379 30.331 7.70898 29.5047 7.70898V9.70898ZM29 9.20427C29 8.9256 29.2261 8.69955 29.5047 8.69955V10.6996C30.3306 10.6996 31 10.0302 31 9.20427H29Z" fill="#4985FF" mask="url(#path-9-inside-5_6_8)"/>
<mask id="path-11-inside-6_6_8" fill="white">
<path d="M8.46191 7.32959C7.59793 7.32959 6.89453 6.62619 6.89453 5.76221C6.89453 4.89795 7.59793 4.19482 8.46191 4.19482C9.32617 4.19482 10.0293 4.89795 10.0293 5.76221C10.0293 6.62619 9.32617 7.32959 8.46191 7.32959ZM8.46191 5.18539C8.14407 5.18539 7.8851 5.44409 7.8851 5.76221C7.8851 6.08033 8.14407 6.33902 8.46191 6.33902C8.78003 6.33902 9.03873 6.08033 9.03873 5.76221C9.03873 5.44409 8.78003 5.18539 8.46191 5.18539Z"/>
</mask>
<path d="M8.46191 7.32959C7.59793 7.32959 6.89453 6.62619 6.89453 5.76221C6.89453 4.89795 7.59793 4.19482 8.46191 4.19482C9.32617 4.19482 10.0293 4.89795 10.0293 5.76221C10.0293 6.62619 9.32617 7.32959 8.46191 7.32959ZM8.46191 5.18539C8.14407 5.18539 7.8851 5.44409 7.8851 5.76221C7.8851 6.08033 8.14407 6.33902 8.46191 6.33902C8.78003 6.33902 9.03873 6.08033 9.03873 5.76221C9.03873 5.44409 8.78003 5.18539 8.46191 5.18539Z" fill="#4985FF"/>
<path d="M8.46191 6.32959C8.15022 6.32959 7.89453 6.0739 7.89453 5.76221H5.89453C5.89453 7.17847 7.04565 8.32959 8.46191 8.32959V6.32959ZM7.89453 5.76221C7.89453 5.45035 8.1501 5.19482 8.46191 5.19482V3.19482C7.04576 3.19482 5.89453 4.34555 5.89453 5.76221H7.89453ZM8.46191 5.19482C8.77389 5.19482 9.0293 5.45023 9.0293 5.76221H11.0293C11.0293 4.34566 9.87846 3.19482 8.46191 3.19482V5.19482ZM9.0293 5.76221C9.0293 6.07402 8.77377 6.32959 8.46191 6.32959V8.32959C9.87857 8.32959 11.0293 7.17836 11.0293 5.76221H9.0293ZM8.46191 4.18539C7.5921 4.18539 6.8851 4.89149 6.8851 5.76221H8.8851C8.8851 5.99668 8.69604 6.18539 8.46191 6.18539V4.18539ZM6.8851 5.76221C6.8851 6.63292 7.5921 7.33902 8.46191 7.33902V5.33902C8.69604 5.33902 8.8851 5.52773 8.8851 5.76221H6.8851ZM8.46191 7.33902C9.33232 7.33902 10.0387 6.63261 10.0387 5.76221H8.03873C8.03873 5.52804 8.22775 5.33902 8.46191 5.33902V7.33902ZM10.0387 5.76221C10.0387 4.8918 9.33232 4.18539 8.46191 4.18539V6.18539C8.22775 6.18539 8.03873 5.99637 8.03873 5.76221H10.0387Z" fill="#4985FF" mask="url(#path-11-inside-6_6_8)"/>
<mask id="path-13-inside-7_6_8" fill="white">
<path d="M3.64746 7.31445C2.7832 7.31445 2.08008 6.61133 2.08008 5.74707C2.08008 4.88281 2.7832 4.17969 3.64746 4.17969C4.51171 4.17969 5.21484 4.88281 5.21484 5.74707C5.21484 6.61133 4.51171 7.31445 3.64746 7.31445ZM3.64746 5.17025C3.32962 5.17025 3.07064 5.42923 3.07064 5.74707C3.07064 6.06519 3.32962 6.32389 3.64746 6.32389C3.96558 6.32389 4.22427 6.06519 4.22427 5.74707C4.22427 5.42923 3.96558 5.17025 3.64746 5.17025Z"/>
</mask>
<path d="M3.64746 7.31445C2.7832 7.31445 2.08008 6.61133 2.08008 5.74707C2.08008 4.88281 2.7832 4.17969 3.64746 4.17969C4.51171 4.17969 5.21484 4.88281 5.21484 5.74707C5.21484 6.61133 4.51171 7.31445 3.64746 7.31445ZM3.64746 5.17025C3.32962 5.17025 3.07064 5.42923 3.07064 5.74707C3.07064 6.06519 3.32962 6.32389 3.64746 6.32389C3.96558 6.32389 4.22427 6.06519 4.22427 5.74707C4.22427 5.42923 3.96558 5.17025 3.64746 5.17025Z" fill="#4985FF"/>
<path d="M3.64746 6.31445C3.33549 6.31445 3.08008 6.05904 3.08008 5.74707H1.08008C1.08008 7.16361 2.23092 8.31445 3.64746 8.31445V6.31445ZM3.08008 5.74707C3.08008 5.4351 3.33549 5.17969 3.64746 5.17969V3.17969C2.23092 3.17969 1.08008 4.33053 1.08008 5.74707H3.08008ZM3.64746 5.17969C3.95943 5.17969 4.21484 5.4351 4.21484 5.74707H6.21484C6.21484 4.33053 5.064 3.17969 3.64746 3.17969V5.17969ZM4.21484 5.74707C4.21484 6.05904 3.95943 6.31445 3.64746 6.31445V8.31445C5.064 8.31445 6.21484 7.16361 6.21484 5.74707H4.21484ZM3.64746 4.17025C2.77733 4.17025 2.07064 4.87694 2.07064 5.74707H4.07064C4.07064 5.98151 3.8819 6.17025 3.64746 6.17025V4.17025ZM2.07064 5.74707C2.07064 6.61778 2.77764 7.32389 3.64746 7.32389V5.32389C3.88159 5.32389 4.07064 5.5126 4.07064 5.74707H2.07064ZM3.64746 7.32389C4.51786 7.32389 5.22427 6.61747 5.22427 5.74707H3.22427C3.22427 5.51291 3.41329 5.32389 3.64746 5.32389V7.32389ZM5.22427 5.74707C5.22427 4.87726 4.51818 4.17025 3.64746 4.17025V6.17025C3.41298 6.17025 3.22427 5.9812 3.22427 5.74707H5.22427Z" fill="#4985FF" mask="url(#path-13-inside-7_6_8)"/>
<mask id="path-15-inside-8_6_8" fill="white">
<path d="M13.278 7.34445C12.4141 7.34445 11.7109 6.64133 11.7109 5.77707C11.7109 4.91309 12.4141 4.20996 13.278 4.20996C14.1423 4.20996 14.8454 4.91309 14.8454 5.77707C14.8454 6.64133 14.1423 7.34445 13.278 7.34445ZM13.278 5.20025C12.9602 5.20025 12.7015 5.45895 12.7015 5.77707C12.7015 6.09519 12.9602 6.35388 13.278 6.35388C13.5962 6.35388 13.8549 6.09519 13.8549 5.77707C13.8549 5.45895 13.5962 5.20025 13.278 5.20025Z"/>
</mask>
<path d="M13.278 7.34445C12.4141 7.34445 11.7109 6.64133 11.7109 5.77707C11.7109 4.91309 12.4141 4.20996 13.278 4.20996C14.1423 4.20996 14.8454 4.91309 14.8454 5.77707C14.8454 6.64133 14.1423 7.34445 13.278 7.34445ZM13.278 5.20025C12.9602 5.20025 12.7015 5.45895 12.7015 5.77707C12.7015 6.09519 12.9602 6.35388 13.278 6.35388C13.5962 6.35388 13.8549 6.09519 13.8549 5.77707C13.8549 5.45895 13.5962 5.20025 13.278 5.20025Z" fill="#4985FF"/>
<path d="M13.278 6.34445C12.9665 6.34445 12.7109 6.08916 12.7109 5.77707H10.7109C10.7109 7.1935 11.8617 8.34445 13.278 8.34445V6.34445ZM12.7109 5.77707C12.7109 5.46537 12.9663 5.20996 13.278 5.20996V3.20996C11.8618 3.20996 10.7109 4.3608 10.7109 5.77707H12.7109ZM13.278 5.20996C13.5901 5.20996 13.8454 5.46549 13.8454 5.77707H15.8454C15.8454 4.36069 14.6945 3.20996 13.278 3.20996V5.20996ZM13.8454 5.77707C13.8454 6.08904 13.59 6.34445 13.278 6.34445V8.34445C14.6946 8.34445 15.8454 7.19361 15.8454 5.77707H13.8454ZM13.278 4.20025C12.4076 4.20025 11.7015 4.90697 11.7015 5.77707H13.7015C13.7015 6.01092 13.5128 6.20025 13.278 6.20025V4.20025ZM11.7015 5.77707C11.7015 6.64716 12.4076 7.35388 13.278 7.35388V5.35388C13.5128 5.35388 13.7015 5.54321 13.7015 5.77707H11.7015ZM13.278 7.35388C14.1484 7.35388 14.8549 6.64747 14.8549 5.77707H12.8549C12.8549 5.5429 13.0439 5.35388 13.278 5.35388V7.35388ZM14.8549 5.77707C14.8549 4.90666 14.1484 4.20025 13.278 4.20025V6.20025C13.0439 6.20025 12.8549 6.01123 12.8549 5.77707H14.8549Z" fill="#4985FF" mask="url(#path-15-inside-8_6_8)"/>
</svg>
