<svg width="110" height="110" viewBox="0 0 110 110" fill="none" xmlns="http://www.w3.org/2000/svg">
<circle cx="55" cy="55" r="54.5" stroke="#E0E0E0"/>
<circle cx="55" cy="55" r="44.5" stroke="#4985FF"/>
<g clip-path="url(#clip0_86072_2)">
<path d="M44.4993 35.8333H44.9993H73.6659H74.1659V36.3333V72.996C74.1745 73.6115 73.6988 74.1262 73.0839 74.1656L73.0679 74.1666H73.0519C73.0024 74.1666 72.8715 74.1605 72.8683 74.1605L72.8658 74.1604L72.8395 74.1597C72.7397 74.1569 72.6212 74.1536 72.5017 74.1424C72.4813 74.1416 72.4505 74.1392 72.4143 74.1323C70.0218 73.8568 68.1346 71.9657 67.8655 69.5708C67.8643 69.5642 67.8629 69.5562 67.8616 69.5473L67.8602 69.5373L67.8592 69.5274C67.8413 69.3519 67.8324 69.1757 67.8326 68.9994M44.4993 35.8333L68.3326 68.9999M44.4993 35.8333V36.3333V45.1666M44.4993 35.8333V45.1666M67.8326 68.9994L68.3326 68.9999M67.8326 68.9994V68.9999H68.3326M67.8326 68.9994V67.6666C67.8326 67.5746 67.758 67.4999 67.666 67.4999H44.9993H44.4993V66.9999V55.5M68.3326 68.9999V67.6666C68.3326 67.2984 68.0341 66.9999 67.666 66.9999H45.4993H44.9993V66.4999V55.5H44.4993M44.4993 55.5H44.166M44.4993 55.5V55M44.4993 55H44.166V55.5M44.4993 55L43.666 66.9999V66.4999V55.5H44.166M44.4993 55V45.1666M44.166 55.5V66.9999V67.4999H43.666H38.3327C38.2407 67.4999 38.166 67.5746 38.166 67.6666V68.9996C38.1695 72.036 40.6302 74.4966 43.6666 74.4999H73.0589C73.8655 74.4756 74.5055 73.8114 74.4993 73.0038L74.4993 72.9999L74.4993 35.6667C74.4993 35.5746 74.4246 35.5 74.3326 35.5H44.3327C44.2406 35.5 44.166 35.5746 44.166 35.6667V45.1666H44.4993M67.8699 69.5928C67.8702 69.5942 67.8701 69.5934 67.8698 69.5922L67.8699 69.5928ZM43.6654 74.1666H43.666L69.2272 74.1686L70.6437 74.1687L69.5412 73.2794C69.4008 73.1661 69.2648 73.0444 69.1332 72.9141C68.9834 72.7645 68.8421 72.6067 68.7101 72.4414L68.6937 72.4194L68.6893 72.4135L68.6847 72.4077C68.5725 72.2658 68.4673 72.1185 68.3698 71.9665C68.3601 71.9494 68.3429 71.919 68.3266 71.8929L68.3263 71.8924C68.2352 71.747 68.1516 71.5974 68.0754 71.4435L68.0721 71.4367L68.0685 71.4299C68.0625 71.4187 68.0608 71.4149 68.0575 71.4076C68.0538 71.3992 68.048 71.3861 68.0312 71.3519C67.962 71.2053 67.8998 71.0589 67.8454 70.9104L67.8444 70.9078C67.8287 70.8656 67.8143 70.826 67.8009 70.7869C67.7526 70.6456 67.7104 70.501 67.6727 70.3519C67.6661 70.3258 67.6606 70.305 67.6559 70.2869C67.6475 70.255 67.6414 70.2317 67.6353 70.2033L67.6346 70.2001C67.6032 70.0599 67.5788 69.9139 67.558 69.7617L67.5578 69.7602C67.5505 69.7076 67.5461 69.6829 67.5429 69.6645C67.5396 69.646 67.5375 69.634 67.5347 69.6065L67.5342 69.6024C67.5118 69.402 67.5002 69.2005 67.4993 68.9987V68.3333V67.8333H66.9993H38.9993H38.4993V68.3333L38.4993 68.9999L38.4993 69.0005C38.5026 71.8523 40.8137 74.1634 43.6654 74.1666ZM67.0373 69.6579C67.041 69.6936 67.0467 69.7285 67.0524 69.7634C67.056 69.7853 67.0595 69.8072 67.0626 69.8293C67.0846 69.9906 67.1113 70.1513 67.1466 70.3093C67.155 70.3479 67.165 70.3863 67.1751 70.4248L67.0373 69.6579Z" fill="#4985FF" stroke="#4985FF"/>
<path d="M57.1815 48.0838L56.5977 47.5H57C57.044 47.5 57.0863 47.5175 57.1177 47.5489L59.7843 50.2155C59.7844 50.2155 59.7844 50.2155 59.7844 50.2155C59.8494 50.2806 59.8494 50.386 59.7844 50.4511C59.7844 50.4511 59.7844 50.4511 59.7843 50.4512L57.1177 53.1178C57.0863 53.1492 57.044 53.1667 57 53.1667H56.5977L57.1815 52.5829L59.0775 50.6869L59.4311 50.3333L59.0775 49.9798L57.1815 48.0838ZM38.3333 47.5H56.5469L56.3429 48.3161L55.8689 50.2121L55.8386 50.3333L55.8689 50.4546L56.3429 52.3506L56.5469 53.1667H38.3333C36.7686 53.1667 35.5 51.8981 35.5 50.3333C35.5 48.7686 36.7686 47.5 38.3333 47.5ZM40.3333 47.8333H39.8333V48.3333V52.3333V52.8333H40.3333H55.48H56.1203L55.965 52.2121L55.6317 50.8787L55.537 50.5H55.1466H42.1667V50.1667H55.1466H55.537L55.6317 49.7879L55.965 48.4546L56.1203 47.8333H55.48H40.3333ZM39.5 48.3333V47.8333H39H38.3333C36.9526 47.8333 35.8333 48.9526 35.8333 50.3333C35.8333 51.714 36.9526 52.8333 38.3333 52.8333H39H39.5V52.3333V48.3333Z" fill="#4985FF" stroke="#4985FF"/>
<path d="M70.3323 42.8335L70.3325 42.8335C70.4245 42.8335 70.4991 42.908 70.4992 43C70.4992 43 70.4992 43.0001 70.4992 43.0001V62.9999C70.4992 63.092 70.4245 63.1666 70.3325 63.1666H50.3325C50.2886 63.1666 50.2463 63.1492 50.2149 63.1178C50.1498 63.0527 50.1497 62.9473 50.2148 62.8822C50.2148 62.8821 50.2148 62.8821 50.2148 62.8821L70.2146 42.8823C70.2146 42.8823 70.2147 42.8822 70.2147 42.8822C70.2461 42.8509 70.2884 42.8335 70.3323 42.8335ZM70.1658 44.6093V43.4022L69.3123 44.2558L51.5883 61.9797L50.7348 62.8333H51.9419H53.6659H54.1659V62.3333V61.4999H54.4992V62.3333V62.8333H54.9992H56.3325H56.8325V62.3333V61.4999H57.1659V62.3333V62.8333H57.6659H58.9992H59.4992V62.3333V61.4999H59.8325V62.3333V62.8333H60.3325H61.6659H62.1659V62.3333V61.4999H62.4992V62.3333V62.8333H62.9992H64.3325H64.8325V62.3333V61.4999H65.1658V62.3333V62.8333H65.6658H66.9992H67.4992V62.3333V61.4999H67.8325V62.3333V62.8333H68.3325H69.6658H70.1658V62.3333V60.9999V60.4999H69.6658H68.8325V60.1666H69.6658H70.1658V59.6666V58.3333V57.8333H69.6658H68.8325V57.5H69.6658H70.1658V57V55.6666V55.1666H69.6658H68.8325V54.8333H69.6658H70.1658V54.3333V53V52.5H69.6658H68.8325V52.1666H69.6658H70.1658V51.6666V50.3333V49.8333H69.6658H68.8325V49.5H69.6658H70.1658V49V47.6666V47.1666H69.6658H68.8325V46.8333H69.6658H70.1658V46.3333V44.6093Z" fill="#4985FF" stroke="#4985FF"/>
<path d="M66.334 52.4902L66.3339 52.4902C66.2899 52.4902 66.2476 52.5077 66.2162 52.5391L59.873 58.8822C59.873 58.8822 59.873 58.8822 59.873 58.8823C59.808 58.9474 59.808 59.0528 59.873 59.1179L66.334 52.4902ZM66.334 52.4902C66.4261 52.4902 66.5007 52.5648 66.5007 52.6567C66.5007 52.6568 66.5007 52.6568 66.5007 52.6568V59C66.5007 59.0921 66.4261 59.1667 66.3341 59.1667H59.9907C59.9468 59.1667 59.9045 59.1493 59.8731 59.1179L66.334 52.4902ZM66.1674 54.2667V53.0596L65.3139 53.9132L61.2472 57.9798L60.3936 58.8334H61.6007H65.6674H66.1674V58.3334V54.2667Z" fill="#4985FF" stroke="#4985FF"/>
<path d="M52.834 39.8333V39.5H65.1673V39.8333H52.834Z" fill="#4985FF" stroke="#4985FF"/>
<path d="M50.834 42.4998V42.1665H67.1673V42.4998H50.834Z" fill="#4985FF" stroke="#4985FF"/>
<path d="M46.834 56.4998V56.1665H49.834V56.4998H46.834Z" fill="#4985FF" stroke="#4985FF"/>
<path d="M46.834 59.1668V58.8335H48.5006V59.1668H46.834Z" fill="#4985FF" stroke="#4985FF"/>
</g>
<defs>
<clipPath id="clip0_86072_2">
<rect width="40" height="40" fill="white" transform="translate(35 35)"/>
</clipPath>
</defs>
</svg>
